<svg xmlns="http://www.w3.org/2000/svg" xmlns:xlink="http://www.w3.org/1999/xlink" contentStyleType="text/css" data-diagram-type="CLASS" height="734" preserveAspectRatio="none" style="width:2184px;height:734px;background:#FFFFFF;" version="1.1" viewBox="0 0 2184 734" width="2184" zoomAndPan="magnify"><defs/><g><!--class Paciente--><g class="entity" data-entity="Paciente" data-source-line="1" data-uid="ent0002" id="entity_Paciente"><rect fill="#F1F1F1" height="227.2656" rx="2.5" ry="2.5" style="stroke:#181818;stroke-width:0.5;" width="247.4775" x="976.5" y="7"/><ellipse cx="1065.8901" cy="23" fill="#ADD1B2" rx="11" ry="11" style="stroke:#181818;stroke-width:1;"/><path d="M1068.8589,28.6406 Q1068.2808,28.9375 1067.6401,29.0781 Q1066.9995,29.2344 1066.2964,29.2344 Q1063.7964,29.2344 1062.4683,27.5938 Q1061.1558,25.9375 1061.1558,22.8125 Q1061.1558,19.6875 1062.4683,18.0313 Q1063.7964,16.375 1066.2964,16.375 Q1066.9995,16.375 1067.6401,16.5313 Q1068.2964,16.6875 1068.8589,16.9844 L1068.8589,19.7031 Q1068.2339,19.125 1067.6401,18.8594 Q1067.0464,18.5781 1066.4214,18.5781 Q1065.0776,18.5781 1064.3901,19.6563 Q1063.7026,20.7188 1063.7026,22.8125 Q1063.7026,24.9063 1064.3901,25.9844 Q1065.0776,27.0469 1066.4214,27.0469 Q1067.0464,27.0469 1067.6401,26.7813 Q1068.2339,26.5 1068.8589,25.9219 L1068.8589,28.6406 Z " fill="#000000"/><text fill="#000000" font-family="sans-serif" font-size="14" lengthAdjust="spacing" textLength="60.1973" x="1086.3901" y="27.8467">Paciente</text><line style="stroke:#181818;stroke-width:0.5;" x1="977.5" x2="1222.9775" y1="39" y2="39"/><rect fill="none" height="6" style="stroke:#C82930;stroke-width:1;" width="6" x="984.5" y="49.6484"/><text fill="#000000" font-family="sans-serif" font-size="14" lengthAdjust="spacing" textLength="56.0684" x="996.5" y="55.9951">id: Long</text><rect fill="none" height="6" style="stroke:#C82930;stroke-width:1;" width="6" x="984.5" y="65.9453"/><text fill="#000000" font-family="sans-serif" font-size="14" lengthAdjust="spacing" textLength="158.0605" x="996.5" y="72.292">nomeCompleto: String</text><rect fill="none" height="6" style="stroke:#C82930;stroke-width:1;" width="6" x="984.5" y="82.2422"/><text fill="#000000" font-family="sans-serif" font-size="14" lengthAdjust="spacing" textLength="213.1992" x="996.5" y="88.5889">dataDeNascimento: LocalDate</text><rect fill="none" height="6" style="stroke:#C82930;stroke-width:1;" width="6" x="984.5" y="98.5391"/><text fill="#000000" font-family="sans-serif" font-size="14" lengthAdjust="spacing" textLength="104.207" x="996.5" y="104.8857">contato: String</text><rect fill="none" height="6" style="stroke:#C82930;stroke-width:1;" width="6" x="984.5" y="114.8359"/><text fill="#000000" font-family="sans-serif" font-size="14" lengthAdjust="spacing" textLength="190.8252" x="996.5" y="121.1826">responsaveis: List&lt;String&gt;</text><rect fill="none" height="6" style="stroke:#C82930;stroke-width:1;" width="6" x="984.5" y="131.1328"/><text fill="#000000" font-family="sans-serif" font-size="14" lengthAdjust="spacing" textLength="97.501" x="996.5" y="137.4795">cidade: String</text><rect fill="none" height="6" style="stroke:#C82930;stroke-width:1;" width="6" x="984.5" y="147.4297"/><text fill="#000000" font-family="sans-serif" font-size="14" lengthAdjust="spacing" textLength="74.1563" x="996.5" y="153.7764">rua: String</text><rect fill="none" height="6" style="stroke:#C82930;stroke-width:1;" width="6" x="984.5" y="163.7266"/><text fill="#000000" font-family="sans-serif" font-size="14" lengthAdjust="spacing" textLength="92.3809" x="996.5" y="170.0732">bairro: String</text><rect fill="none" height="6" style="stroke:#C82930;stroke-width:1;" width="6" x="984.5" y="180.0234"/><text fill="#000000" font-family="sans-serif" font-size="14" lengthAdjust="spacing" textLength="148.0732" x="996.5" y="186.3701">numeroCasa: Integer</text><rect fill="none" height="6" style="stroke:#C82930;stroke-width:1;" width="6" x="984.5" y="196.3203"/><text fill="#000000" font-family="sans-serif" font-size="14" lengthAdjust="spacing" textLength="179.416" x="996.5" y="202.667">transtornos: List&lt;String&gt;</text><line style="stroke:#181818;stroke-width:1;" x1="977.5" x2="1222.9775" y1="209.9688" y2="209.9688"/><ellipse cx="987.5" cy="223.6172" fill="#84BE84" rx="3" ry="3" style="stroke:#038048;stroke-width:1;"/><text fill="#000000" font-family="sans-serif" font-size="14" lengthAdjust="spacing" textLength="221.4775" x="996.5" y="226.9639">getDetalhes(id: Long): Paciente</text></g><!--class Consulta--><g class="entity" data-entity="Consulta" data-source-line="16" data-uid="ent0003" id="entity_Consulta"><rect fill="#F1F1F1" height="178.375" rx="2.5" ry="2.5" style="stroke:#181818;stroke-width:0.5;" width="718.4668" x="7" y="549"/><ellipse cx="331.314" cy="565" fill="#ADD1B2" rx="11" ry="11" style="stroke:#181818;stroke-width:1;"/><path d="M334.2827,570.6406 Q333.7046,570.9375 333.064,571.0781 Q332.4233,571.2344 331.7202,571.2344 Q329.2202,571.2344 327.8921,569.5938 Q326.5796,567.9375 326.5796,564.8125 Q326.5796,561.6875 327.8921,560.0313 Q329.2202,558.375 331.7202,558.375 Q332.4233,558.375 333.064,558.5313 Q333.7202,558.6875 334.2827,558.9844 L334.2827,561.7031 Q333.6577,561.125 333.064,560.8594 Q332.4702,560.5781 331.8452,560.5781 Q330.5015,560.5781 329.814,561.6563 Q329.1265,562.7188 329.1265,564.8125 Q329.1265,566.9063 329.814,567.9844 Q330.5015,569.0469 331.8452,569.0469 Q332.4702,569.0469 333.064,568.7813 Q333.6577,568.5 334.2827,567.9219 L334.2827,570.6406 Z " fill="#000000"/><text fill="#000000" font-family="sans-serif" font-size="14" lengthAdjust="spacing" textLength="61.3389" x="351.814" y="569.8467">Consulta</text><line style="stroke:#181818;stroke-width:0.5;" x1="8" x2="724.4668" y1="581" y2="581"/><rect fill="none" height="6" style="stroke:#C82930;stroke-width:1;" width="6" x="15" y="591.6484"/><text fill="#000000" font-family="sans-serif" font-size="14" lengthAdjust="spacing" textLength="56.0684" x="27" y="597.9951">id: Long</text><rect fill="none" height="6" style="stroke:#C82930;stroke-width:1;" width="6" x="15" y="607.9453"/><text fill="#000000" font-family="sans-serif" font-size="14" lengthAdjust="spacing" textLength="217.5537" x="27" y="614.292">relatorio: Map&lt;String, Object&gt;</text><rect fill="none" height="6" style="stroke:#C82930;stroke-width:1;" width="6" x="15" y="624.2422"/><text fill="#000000" font-family="sans-serif" font-size="14" lengthAdjust="spacing" textLength="206.7256" x="27" y="630.5889">dataConsulta: LocalDateTime</text><rect fill="none" height="6" style="stroke:#C82930;stroke-width:1;" width="6" x="15" y="640.5391"/><text fill="#000000" font-family="sans-serif" font-size="14" lengthAdjust="spacing" textLength="108.1582" x="27" y="646.8857">status: boolean</text><line style="stroke:#181818;stroke-width:1;" x1="8" x2="724.4668" y1="654.1875" y2="654.1875"/><ellipse cx="18" cy="667.8359" fill="#84BE84" rx="3" ry="3" style="stroke:#038048;stroke-width:1;"/><text fill="#000000" font-family="sans-serif" font-size="14" lengthAdjust="spacing" textLength="526.0254" x="27" y="671.1826">getConsultas(idPaciente: Long, idProfissionalSaude: Long): List&lt;Consulta&gt;</text><ellipse cx="18" cy="684.1328" fill="#84BE84" rx="3" ry="3" style="stroke:#038048;stroke-width:1;"/><text fill="#000000" font-family="sans-serif" font-size="14" lengthAdjust="spacing" textLength="692.4668" x="27" y="687.4795">addConsulta(id: Long, relatorio: Json, dataConsulta: LocalDateTime, profissionalId: Long): Consulta</text><ellipse cx="18" cy="700.4297" fill="#84BE84" rx="3" ry="3" style="stroke:#038048;stroke-width:1;"/><text fill="#000000" font-family="sans-serif" font-size="14" lengthAdjust="spacing" textLength="507.9375" x="27" y="703.7764">trocarDataConsulta(id: Long, novaData: LocalDateTime): LocalDateTime</text><ellipse cx="18" cy="716.7266" fill="#84BE84" rx="3" ry="3" style="stroke:#038048;stroke-width:1;"/><text fill="#000000" font-family="sans-serif" font-size="14" lengthAdjust="spacing" textLength="218.5859" x="27" y="720.0732">addAnexo(arquivo: File): String</text></g><!--class ProfissionalSaude--><g class="entity" data-entity="ProfissionalSaude" data-source-line="28" data-uid="ent0004" id="entity_ProfissionalSaude"><rect fill="#F1F1F1" height="194.6719" rx="2.5" ry="2.5" style="stroke:#181818;stroke-width:0.5;" width="311.0859" x="840.5" y="294"/><ellipse cx="929.8901" cy="310" fill="#ADD1B2" rx="11" ry="11" style="stroke:#181818;stroke-width:1;"/><path d="M932.8589,315.6406 Q932.2808,315.9375 931.6401,316.0781 Q930.9995,316.2344 930.2964,316.2344 Q927.7964,316.2344 926.4683,314.5938 Q925.1558,312.9375 925.1558,309.8125 Q925.1558,306.6875 926.4683,305.0313 Q927.7964,303.375 930.2964,303.375 Q930.9995,303.375 931.6401,303.5313 Q932.2964,303.6875 932.8589,303.9844 L932.8589,306.7031 Q932.2339,306.125 931.6401,305.8594 Q931.0464,305.5781 930.4214,305.5781 Q929.0776,305.5781 928.3901,306.6563 Q927.7026,307.7188 927.7026,309.8125 Q927.7026,311.9063 928.3901,312.9844 Q929.0776,314.0469 930.4214,314.0469 Q931.0464,314.0469 931.6401,313.7813 Q932.2339,313.5 932.8589,312.9219 L932.8589,315.6406 Z " fill="#000000"/><text fill="#000000" font-family="sans-serif" font-size="14" lengthAdjust="spacing" textLength="123.8057" x="950.3901" y="314.8467">ProfissionalSaude</text><line style="stroke:#181818;stroke-width:0.5;" x1="841.5" x2="1150.5859" y1="326" y2="326"/><rect fill="none" height="6" style="stroke:#C82930;stroke-width:1;" width="6" x="848.5" y="336.6484"/><text fill="#000000" font-family="sans-serif" font-size="14" lengthAdjust="spacing" textLength="56.0684" x="860.5" y="342.9951">id: Long</text><rect fill="none" height="6" style="stroke:#C82930;stroke-width:1;" width="6" x="848.5" y="352.9453"/><text fill="#000000" font-family="sans-serif" font-size="14" lengthAdjust="spacing" textLength="151.2314" x="860.5" y="359.292">primeiroNome: String</text><rect fill="none" height="6" style="stroke:#C82930;stroke-width:1;" width="6" x="848.5" y="369.2422"/><text fill="#000000" font-family="sans-serif" font-size="14" lengthAdjust="spacing" textLength="158.0605" x="860.5" y="375.5889">nomeCompleto: String</text><rect fill="none" height="6" style="stroke:#C82930;stroke-width:1;" width="6" x="848.5" y="385.5391"/><text fill="#000000" font-family="sans-serif" font-size="14" lengthAdjust="spacing" textLength="89.5576" x="860.5" y="391.8857">email: String</text><rect fill="none" height="6" style="stroke:#C82930;stroke-width:1;" width="6" x="848.5" y="401.8359"/><text fill="#000000" font-family="sans-serif" font-size="14" lengthAdjust="spacing" textLength="104.207" x="860.5" y="408.1826">contato: String</text><rect fill="none" height="6" style="stroke:#C82930;stroke-width:1;" width="6" x="848.5" y="418.1328"/><text fill="#000000" font-family="sans-serif" font-size="14" lengthAdjust="spacing" textLength="78.0391" x="860.5" y="424.4795">crm: String</text><line style="stroke:#181818;stroke-width:1;" x1="841.5" x2="1150.5859" y1="431.7813" y2="431.7813"/><ellipse cx="851.5" cy="445.4297" fill="#84BE84" rx="3" ry="3" style="stroke:#038048;stroke-width:1;"/><text fill="#000000" font-family="sans-serif" font-size="14" lengthAdjust="spacing" textLength="274.7705" x="860.5" y="448.7764">getPacientes(id: Long): List&lt;Paciente&gt;</text><ellipse cx="851.5" cy="461.7266" fill="#84BE84" rx="3" ry="3" style="stroke:#038048;stroke-width:1;"/><text fill="#000000" font-family="sans-serif" font-size="14" lengthAdjust="spacing" textLength="285.0859" x="860.5" y="465.0732">getDetalhes(id: Long): ProfissionalSaude</text><ellipse cx="851.5" cy="478.0234" fill="#84BE84" rx="3" ry="3" style="stroke:#038048;stroke-width:1;"/><text fill="#000000" font-family="sans-serif" font-size="14" lengthAdjust="spacing" textLength="240.7686" x="860.5" y="481.3701">getPrimeiroNome(id: Long): String</text></g><!--class Anexo--><g class="entity" data-entity="Anexo" data-source-line="42" data-uid="ent0005" id="entity_Anexo"><rect fill="#F1F1F1" height="145.7813" rx="2.5" ry="2.5" style="stroke:#181818;stroke-width:0.5;" width="681.0605" x="760.5" y="565"/><ellipse cx="1074.8232" cy="581" fill="#ADD1B2" rx="11" ry="11" style="stroke:#181818;stroke-width:1;"/><path d="M1077.792,586.6406 Q1077.2139,586.9375 1076.5732,587.0781 Q1075.9326,587.2344 1075.2295,587.2344 Q1072.7295,587.2344 1071.4014,585.5938 Q1070.0889,583.9375 1070.0889,580.8125 Q1070.0889,577.6875 1071.4014,576.0313 Q1072.7295,574.375 1075.2295,574.375 Q1075.9326,574.375 1076.5732,574.5313 Q1077.2295,574.6875 1077.792,574.9844 L1077.792,577.7031 Q1077.167,577.125 1076.5732,576.8594 Q1075.9795,576.5781 1075.3545,576.5781 Q1074.0107,576.5781 1073.3232,577.6563 Q1072.6357,578.7188 1072.6357,580.8125 Q1072.6357,582.9063 1073.3232,583.9844 Q1074.0107,585.0469 1075.3545,585.0469 Q1075.9795,585.0469 1076.5732,584.7813 Q1077.167,584.5 1077.792,583.9219 L1077.792,586.6406 Z " fill="#000000"/><text fill="#000000" font-family="sans-serif" font-size="14" lengthAdjust="spacing" textLength="43.9141" x="1095.3232" y="585.8467">Anexo</text><line style="stroke:#181818;stroke-width:0.5;" x1="761.5" x2="1440.5605" y1="597" y2="597"/><rect fill="none" height="6" style="stroke:#C82930;stroke-width:1;" width="6" x="768.5" y="607.6484"/><text fill="#000000" font-family="sans-serif" font-size="14" lengthAdjust="spacing" textLength="56.0684" x="780.5" y="613.9951">id: Long</text><rect fill="none" height="6" style="stroke:#C82930;stroke-width:1;" width="6" x="768.5" y="623.9453"/><text fill="#000000" font-family="sans-serif" font-size="14" lengthAdjust="spacing" textLength="117.5576" x="780.5" y="630.292">idArquivo: String</text><rect fill="none" height="6" style="stroke:#C82930;stroke-width:1;" width="6" x="768.5" y="640.2422"/><text fill="#000000" font-family="sans-serif" font-size="14" lengthAdjust="spacing" textLength="134.5518" x="780.5" y="646.5889">nomeAnexo: String</text><rect fill="none" height="6" style="stroke:#C82930;stroke-width:1;" width="6" x="768.5" y="656.5391"/><text fill="#000000" font-family="sans-serif" font-size="14" lengthAdjust="spacing" textLength="117.9268" x="780.5" y="662.8857">descricao: String</text><rect fill="none" height="6" style="stroke:#C82930;stroke-width:1;" width="6" x="768.5" y="672.8359"/><text fill="#000000" font-family="sans-serif" font-size="14" lengthAdjust="spacing" textLength="110.7285" x="780.5" y="679.1826">date: LocalDate</text><line style="stroke:#181818;stroke-width:1;" x1="761.5" x2="1440.5605" y1="686.4844" y2="686.4844"/><ellipse cx="771.5" cy="700.1328" fill="#84BE84" rx="3" ry="3" style="stroke:#038048;stroke-width:1;"/><text fill="#000000" font-family="sans-serif" font-size="14" lengthAdjust="spacing" textLength="655.0605" x="780.5" y="703.4795">addArquivo(arquivo: File, idPaciente: Long, idProfissional: Long, date: LocalDateTime): Anexo</text></g><!--class Relatorio--><g class="entity" data-entity="Relatorio" data-source-line="52" data-uid="ent0006" id="entity_Relatorio"><rect fill="#F1F1F1" height="113.1875" rx="2.5" ry="2.5" style="stroke:#181818;stroke-width:0.5;" width="700.2217" x="1477" y="581.5"/><ellipse cx="1791.3232" cy="597.5" fill="#ADD1B2" rx="11" ry="11" style="stroke:#181818;stroke-width:1;"/><path d="M1794.292,603.1406 Q1793.7139,603.4375 1793.0732,603.5781 Q1792.4326,603.7344 1791.7295,603.7344 Q1789.2295,603.7344 1787.9014,602.0938 Q1786.5889,600.4375 1786.5889,597.3125 Q1786.5889,594.1875 1787.9014,592.5313 Q1789.2295,590.875 1791.7295,590.875 Q1792.4326,590.875 1793.0732,591.0313 Q1793.7295,591.1875 1794.292,591.4844 L1794.292,594.2031 Q1793.667,593.625 1793.0732,593.3594 Q1792.4795,593.0781 1791.8545,593.0781 Q1790.5107,593.0781 1789.8232,594.1563 Q1789.1357,595.2188 1789.1357,597.3125 Q1789.1357,599.4063 1789.8232,600.4844 Q1790.5107,601.5469 1791.8545,601.5469 Q1792.4795,601.5469 1793.0732,601.2813 Q1793.667,601 1794.292,600.4219 L1794.292,603.1406 Z " fill="#000000"/><text fill="#000000" font-family="sans-serif" font-size="14" lengthAdjust="spacing" textLength="63.0752" x="1811.8232" y="602.3467">Relatorio</text><line style="stroke:#181818;stroke-width:0.5;" x1="1478" x2="2176.2217" y1="613.5" y2="613.5"/><rect fill="none" height="6" style="stroke:#C82930;stroke-width:1;" width="6" x="1485" y="624.1484"/><text fill="#000000" font-family="sans-serif" font-size="14" lengthAdjust="spacing" textLength="56.0684" x="1497" y="630.4951">id: Long</text><rect fill="none" height="6" style="stroke:#C82930;stroke-width:1;" width="6" x="1485" y="640.4453"/><text fill="#000000" font-family="sans-serif" font-size="14" lengthAdjust="spacing" textLength="117.5576" x="1497" y="646.792">idArquivo: String</text><rect fill="none" height="6" style="stroke:#C82930;stroke-width:1;" width="6" x="1485" y="656.7422"/><text fill="#000000" font-family="sans-serif" font-size="14" lengthAdjust="spacing" textLength="145.4209" x="1497" y="663.0889">date: LocalDateTime</text><line style="stroke:#181818;stroke-width:1;" x1="1478" x2="2176.2217" y1="670.3906" y2="670.3906"/><ellipse cx="1488" cy="684.0391" fill="#84BE84" rx="3" ry="3" style="stroke:#038048;stroke-width:1;"/><text fill="#000000" font-family="sans-serif" font-size="14" lengthAdjust="spacing" textLength="674.2217" x="1497" y="687.3857">addArquivo(arquivo: File, idPaciente: Long, idProfissional: Long, date: LocalDateTime): Relatorio</text></g><!--link Paciente to Consulta--><g class="link" data-entity-1="Paciente" data-entity-2="Consulta" data-source-line="60" data-uid="lnk7" id="link_Paciente_Consulta"><path codeLine="60" d="M976.49,195.24 C928.03,225 872.32,260.23 823,294 C702.27,376.67 568.95,477.94 477.63,548.94" fill="none" id="Paciente-Consulta" style="stroke:#181818;stroke-width:1;"/><text fill="#000000" font-family="sans-serif" font-size="13" lengthAdjust="spacing" textLength="8.271" x="960.3148" y="196.6102">1</text><text fill="#000000" font-family="sans-serif" font-size="13" lengthAdjust="spacing" textLength="23.0356" x="462.9042" y="538.0005">0..*</text></g><!--link ProfissionalSaude to Consulta--><g class="link" data-entity-1="ProfissionalSaude" data-entity-2="Consulta" data-source-line="61" data-uid="lnk8" id="link_ProfissionalSaude_Consulta"><path codeLine="61" d="M840.27,452.94 C765.66,481.89 674.88,517.12 592.79,548.98" fill="none" id="ProfissionalSaude-Consulta" style="stroke:#181818;stroke-width:1;"/><text fill="#000000" font-family="sans-serif" font-size="13" lengthAdjust="spacing" textLength="8.271" x="824.0387" y="452.8001">1</text><text fill="#000000" font-family="sans-serif" font-size="13" lengthAdjust="spacing" textLength="23.0356" x="587.6009" y="538.0438">0..*</text></g><!--link Paciente to ProfissionalSaude--><g class="link" data-entity-1="Paciente" data-entity-2="ProfissionalSaude" data-source-line="62" data-uid="lnk9" id="link_Paciente_ProfissionalSaude"><path codeLine="62" d="M1056.5,234.02 C1048.82,253.89 1040.88,274.42 1033.39,293.8" fill="none" id="Paciente-ProfissionalSaude" style="stroke:#181818;stroke-width:1;"/><text fill="#000000" font-family="sans-serif" font-size="13" lengthAdjust="spacing" textLength="23.0356" x="1029.7898" y="254.2135">0..*</text><text fill="#000000" font-family="sans-serif" font-size="13" lengthAdjust="spacing" textLength="23.0356" x="1012.3703" y="282.8302">0..*</text></g><!--link Anexo to Paciente--><g class="link" data-entity-1="Anexo" data-entity-2="Paciente" data-source-line="63" data-uid="lnk10" id="link_Anexo_Paciente"><path codeLine="63" d="M1141.76,564.65 C1152.87,541.25 1163.38,514.69 1169,489 C1187.52,404.34 1185.39,379.1 1169,294 C1165.19,274.2 1159.12,253.79 1152.14,234.25" fill="none" id="Anexo-Paciente" style="stroke:#181818;stroke-width:1;"/><text fill="#000000" font-family="sans-serif" font-size="13" lengthAdjust="spacing" textLength="23.0356" x="1121.5477" y="554.0276">0..*</text><text fill="#000000" font-family="sans-serif" font-size="13" lengthAdjust="spacing" textLength="8.271" x="1147.3675" y="254.4589">1</text></g><!--link Paciente to Relatorio--><g class="link" data-entity-1="Paciente" data-entity-2="Relatorio" data-source-line="64" data-uid="lnk11" id="link_Paciente_Relatorio"><path codeLine="64" d="M1223.74,209.24 C1373.91,315.72 1622.64,492.09 1748.65,581.44" fill="none" id="Paciente-Relatorio" style="stroke:#181818;stroke-width:1;"/><text fill="#000000" font-family="sans-serif" font-size="13" lengthAdjust="spacing" textLength="8.271" x="1231.9167" y="211.5071">1</text><text fill="#000000" font-family="sans-serif" font-size="13" lengthAdjust="spacing" textLength="23.0356" x="1714.1261" y="570.2957">0..*</text></g><!--link ProfissionalSaude to Relatorio--><g class="link" data-entity-1="ProfissionalSaude" data-entity-2="Relatorio" data-source-line="65" data-uid="lnk12" id="link_ProfissionalSaude_Relatorio"><path codeLine="65" d="M1151.82,438.35 C1289.63,478.89 1491.07,538.16 1638.04,581.4" fill="none" id="ProfissionalSaude-Relatorio" style="stroke:#181818;stroke-width:1;"/><text fill="#000000" font-family="sans-serif" font-size="13" lengthAdjust="spacing" textLength="8.271" x="1159.5658" y="437.3341">1</text><text fill="#000000" font-family="sans-serif" font-size="13" lengthAdjust="spacing" textLength="23.0356" x="1589.3441" y="570.2506">0..*</text></g><!--link ProfissionalSaude to Anexo--><g class="link" data-entity-1="ProfissionalSaude" data-entity-2="Anexo" data-source-line="66" data-uid="lnk13" id="link_ProfissionalSaude_Anexo"><path codeLine="66" d="M1037.5,489.13 C1048.33,514.36 1059.82,541.11 1070,564.83" fill="none" id="ProfissionalSaude-Anexo" style="stroke:#181818;stroke-width:1;"/><text fill="#000000" font-family="sans-serif" font-size="13" lengthAdjust="spacing" textLength="8.271" x="1032.1432" y="508.6051">1</text><text fill="#000000" font-family="sans-serif" font-size="13" lengthAdjust="spacing" textLength="23.0356" x="1042.8152" y="553.9732">0..*</text></g><!--SRC=[lLJ1ZjCm4BttAwoUTY5TmRL2bLQja1R1icBvWQap52F73cEdGaByEuvZEwwJx2uNUedgcNdpvispkGHZs0DmWSeY-xrYxhTXejwoZrgTmb-b6zphffLezPOzMX8fL8E50zw3uQ9n4Bgluo0FO35aSAqiJEe8JQkLWJCAusg4iU-6-2wMYHfgBAiwA4wE88XASDKrI7eFncNVkRbEI25Y2PIncfIUxRhndzViXFQ05kHtD5THY-jjqcdrPxNYNhczcw6J5fQK8vHkTXAEuITeGxEAVJx-G6vtcOOHADFlgrCqP1YdOESO7xMM26f2DbRtR2F9WKVb63sG_YQC4Lg1V8IknZIGLo0Mxm8Ur7KyIiDN-IGVZ5RLKwmhrcOjxqO1OtxePCbLqI43oXegVOO-L61VpodaITyg_AMlW7vsuknOlXUoJmx6I1kRYB6qkfOSkY1zxynV-clvFc03GXPdypU0KtDvakqpxl32VNvPCR9xngdbb1bsDbTUCWeLbF9wBgaZwjiez4GQNrY-4sWu2GupxmTEtenDjjIXo-LQlQcVj7ayBU23WJp1qH9VehN_TTWPzFypG6BS3v5Ux_NRjMlDrczkRbwjnxisTVnIOW8Q0cFAr4w3ER941vcUnmL68-ldABqyq_Fu2m00]--></g></svg>