<svg xmlns="http://www.w3.org/2000/svg" xmlns:xlink="http://www.w3.org/1999/xlink" contentStyleType="text/css" data-diagram-type="CLASS" height="734" preserveAspectRatio="none" style="width:732px;height:734px;background:#FFFFFF;" version="1.1" viewBox="0 0 732 734" width="732" zoomAndPan="magnify"><defs/><g><!--class Paciente--><g class="entity" data-entity="Paciente" data-source-line="1" data-uid="ent0002" id="entity_Paciente"><rect fill="#F1F1F1" height="227.2656" rx="2.5" ry="2.5" style="stroke:#181818;stroke-width:0.5;" width="247.4775" x="242.5" y="7"/><ellipse cx="331.8901" cy="23" fill="#ADD1B2" rx="11" ry="11" style="stroke:#181818;stroke-width:1;"/><path d="M334.8589,28.6406 Q334.2808,28.9375 333.6401,29.0781 Q332.9995,29.2344 332.2964,29.2344 Q329.7964,29.2344 328.4683,27.5938 Q327.1558,25.9375 327.1558,22.8125 Q327.1558,19.6875 328.4683,18.0313 Q329.7964,16.375 332.2964,16.375 Q332.9995,16.375 333.6401,16.5313 Q334.2964,16.6875 334.8589,16.9844 L334.8589,19.7031 Q334.2339,19.125 333.6401,18.8594 Q333.0464,18.5781 332.4214,18.5781 Q331.0776,18.5781 330.3901,19.6563 Q329.7026,20.7188 329.7026,22.8125 Q329.7026,24.9063 330.3901,25.9844 Q331.0776,27.0469 332.4214,27.0469 Q333.0464,27.0469 333.6401,26.7813 Q334.2339,26.5 334.8589,25.9219 L334.8589,28.6406 Z " fill="#000000"/><text fill="#000000" font-family="sans-serif" font-size="14" lengthAdjust="spacing" textLength="60.1973" x="352.3901" y="27.8467">Paciente</text><line style="stroke:#181818;stroke-width:0.5;" x1="243.5" x2="488.9775" y1="39" y2="39"/><rect fill="none" height="6" style="stroke:#C82930;stroke-width:1;" width="6" x="250.5" y="49.6484"/><text fill="#000000" font-family="sans-serif" font-size="14" lengthAdjust="spacing" textLength="56.0684" x="262.5" y="55.9951">id: Long</text><rect fill="none" height="6" style="stroke:#C82930;stroke-width:1;" width="6" x="250.5" y="65.9453"/><text fill="#000000" font-family="sans-serif" font-size="14" lengthAdjust="spacing" textLength="158.0605" x="262.5" y="72.292">nomeCompleto: String</text><rect fill="none" height="6" style="stroke:#C82930;stroke-width:1;" width="6" x="250.5" y="82.2422"/><text fill="#000000" font-family="sans-serif" font-size="14" lengthAdjust="spacing" textLength="213.1992" x="262.5" y="88.5889">dataDeNascimento: LocalDate</text><rect fill="none" height="6" style="stroke:#C82930;stroke-width:1;" width="6" x="250.5" y="98.5391"/><text fill="#000000" font-family="sans-serif" font-size="14" lengthAdjust="spacing" textLength="104.207" x="262.5" y="104.8857">contato: String</text><rect fill="none" height="6" style="stroke:#C82930;stroke-width:1;" width="6" x="250.5" y="114.8359"/><text fill="#000000" font-family="sans-serif" font-size="14" lengthAdjust="spacing" textLength="190.8252" x="262.5" y="121.1826">responsaveis: List&lt;String&gt;</text><rect fill="none" height="6" style="stroke:#C82930;stroke-width:1;" width="6" x="250.5" y="131.1328"/><text fill="#000000" font-family="sans-serif" font-size="14" lengthAdjust="spacing" textLength="97.501" x="262.5" y="137.4795">cidade: String</text><rect fill="none" height="6" style="stroke:#C82930;stroke-width:1;" width="6" x="250.5" y="147.4297"/><text fill="#000000" font-family="sans-serif" font-size="14" lengthAdjust="spacing" textLength="74.1563" x="262.5" y="153.7764">rua: String</text><rect fill="none" height="6" style="stroke:#C82930;stroke-width:1;" width="6" x="250.5" y="163.7266"/><text fill="#000000" font-family="sans-serif" font-size="14" lengthAdjust="spacing" textLength="92.3809" x="262.5" y="170.0732">bairro: String</text><rect fill="none" height="6" style="stroke:#C82930;stroke-width:1;" width="6" x="250.5" y="180.0234"/><text fill="#000000" font-family="sans-serif" font-size="14" lengthAdjust="spacing" textLength="148.0732" x="262.5" y="186.3701">numeroCasa: Integer</text><rect fill="none" height="6" style="stroke:#C82930;stroke-width:1;" width="6" x="250.5" y="196.3203"/><text fill="#000000" font-family="sans-serif" font-size="14" lengthAdjust="spacing" textLength="179.416" x="262.5" y="202.667">transtornos: List&lt;String&gt;</text><line style="stroke:#181818;stroke-width:1;" x1="243.5" x2="488.9775" y1="209.9688" y2="209.9688"/><ellipse cx="253.5" cy="223.6172" fill="#84BE84" rx="3" ry="3" style="stroke:#038048;stroke-width:1;"/><text fill="#000000" font-family="sans-serif" font-size="14" lengthAdjust="spacing" textLength="221.4775" x="262.5" y="226.9639">getDetalhes(id: Long): Paciente</text></g><!--class Consulta--><g class="entity" data-entity="Consulta" data-source-line="16" data-uid="ent0003" id="entity_Consulta"><rect fill="#F1F1F1" height="178.375" rx="2.5" ry="2.5" style="stroke:#181818;stroke-width:0.5;" width="718.4668" x="7" y="549"/><ellipse cx="331.314" cy="565" fill="#ADD1B2" rx="11" ry="11" style="stroke:#181818;stroke-width:1;"/><path d="M334.2827,570.6406 Q333.7046,570.9375 333.064,571.0781 Q332.4233,571.2344 331.7202,571.2344 Q329.2202,571.2344 327.8921,569.5938 Q326.5796,567.9375 326.5796,564.8125 Q326.5796,561.6875 327.8921,560.0313 Q329.2202,558.375 331.7202,558.375 Q332.4233,558.375 333.064,558.5313 Q333.7202,558.6875 334.2827,558.9844 L334.2827,561.7031 Q333.6577,561.125 333.064,560.8594 Q332.4702,560.5781 331.8452,560.5781 Q330.5015,560.5781 329.814,561.6563 Q329.1265,562.7188 329.1265,564.8125 Q329.1265,566.9063 329.814,567.9844 Q330.5015,569.0469 331.8452,569.0469 Q332.4702,569.0469 333.064,568.7813 Q333.6577,568.5 334.2827,567.9219 L334.2827,570.6406 Z " fill="#000000"/><text fill="#000000" font-family="sans-serif" font-size="14" lengthAdjust="spacing" textLength="61.3389" x="351.814" y="569.8467">Consulta</text><line style="stroke:#181818;stroke-width:0.5;" x1="8" x2="724.4668" y1="581" y2="581"/><rect fill="none" height="6" style="stroke:#C82930;stroke-width:1;" width="6" x="15" y="591.6484"/><text fill="#000000" font-family="sans-serif" font-size="14" lengthAdjust="spacing" textLength="56.0684" x="27" y="597.9951">id: Long</text><rect fill="none" height="6" style="stroke:#C82930;stroke-width:1;" width="6" x="15" y="607.9453"/><text fill="#000000" font-family="sans-serif" font-size="14" lengthAdjust="spacing" textLength="217.5537" x="27" y="614.292">relatorio: Map&lt;String, Object&gt;</text><rect fill="none" height="6" style="stroke:#C82930;stroke-width:1;" width="6" x="15" y="624.2422"/><text fill="#000000" font-family="sans-serif" font-size="14" lengthAdjust="spacing" textLength="206.7256" x="27" y="630.5889">dataConsulta: LocalDateTime</text><rect fill="none" height="6" style="stroke:#C82930;stroke-width:1;" width="6" x="15" y="640.5391"/><text fill="#000000" font-family="sans-serif" font-size="14" lengthAdjust="spacing" textLength="108.1582" x="27" y="646.8857">status: boolean</text><line style="stroke:#181818;stroke-width:1;" x1="8" x2="724.4668" y1="654.1875" y2="654.1875"/><ellipse cx="18" cy="667.8359" fill="#84BE84" rx="3" ry="3" style="stroke:#038048;stroke-width:1;"/><text fill="#000000" font-family="sans-serif" font-size="14" lengthAdjust="spacing" textLength="526.0254" x="27" y="671.1826">getConsultas(idPaciente: Long, idProfissionalSaude: Long): List&lt;Consulta&gt;</text><ellipse cx="18" cy="684.1328" fill="#84BE84" rx="3" ry="3" style="stroke:#038048;stroke-width:1;"/><text fill="#000000" font-family="sans-serif" font-size="14" lengthAdjust="spacing" textLength="692.4668" x="27" y="687.4795">addConsulta(id: Long, relatorio: Json, dataConsulta: LocalDateTime, profissionalId: Long): Consulta</text><ellipse cx="18" cy="700.4297" fill="#84BE84" rx="3" ry="3" style="stroke:#038048;stroke-width:1;"/><text fill="#000000" font-family="sans-serif" font-size="14" lengthAdjust="spacing" textLength="507.9375" x="27" y="703.7764">trocarDataConsulta(id: Long, novaData: LocalDateTime): LocalDateTime</text><ellipse cx="18" cy="716.7266" fill="#84BE84" rx="3" ry="3" style="stroke:#038048;stroke-width:1;"/><text fill="#000000" font-family="sans-serif" font-size="14" lengthAdjust="spacing" textLength="218.5859" x="27" y="720.0732">addAnexo(arquivo: File): String</text></g><!--class ProfissionalSaude--><g class="entity" data-entity="ProfissionalSaude" data-source-line="28" data-uid="ent0004" id="entity_ProfissionalSaude"><rect fill="#F1F1F1" height="194.6719" rx="2.5" ry="2.5" style="stroke:#181818;stroke-width:0.5;" width="311.0859" x="315.5" y="294"/><ellipse cx="404.8901" cy="310" fill="#ADD1B2" rx="11" ry="11" style="stroke:#181818;stroke-width:1;"/><path d="M407.8589,315.6406 Q407.2808,315.9375 406.6401,316.0781 Q405.9995,316.2344 405.2964,316.2344 Q402.7964,316.2344 401.4683,314.5938 Q400.1558,312.9375 400.1558,309.8125 Q400.1558,306.6875 401.4683,305.0313 Q402.7964,303.375 405.2964,303.375 Q405.9995,303.375 406.6401,303.5313 Q407.2964,303.6875 407.8589,303.9844 L407.8589,306.7031 Q407.2339,306.125 406.6401,305.8594 Q406.0464,305.5781 405.4214,305.5781 Q404.0776,305.5781 403.3901,306.6563 Q402.7026,307.7188 402.7026,309.8125 Q402.7026,311.9063 403.3901,312.9844 Q404.0776,314.0469 405.4214,314.0469 Q406.0464,314.0469 406.6401,313.7813 Q407.2339,313.5 407.8589,312.9219 L407.8589,315.6406 Z " fill="#000000"/><text fill="#000000" font-family="sans-serif" font-size="14" lengthAdjust="spacing" textLength="123.8057" x="425.3901" y="314.8467">ProfissionalSaude</text><line style="stroke:#181818;stroke-width:0.5;" x1="316.5" x2="625.5859" y1="326" y2="326"/><rect fill="none" height="6" style="stroke:#C82930;stroke-width:1;" width="6" x="323.5" y="336.6484"/><text fill="#000000" font-family="sans-serif" font-size="14" lengthAdjust="spacing" textLength="56.0684" x="335.5" y="342.9951">id: Long</text><rect fill="none" height="6" style="stroke:#C82930;stroke-width:1;" width="6" x="323.5" y="352.9453"/><text fill="#000000" font-family="sans-serif" font-size="14" lengthAdjust="spacing" textLength="151.2314" x="335.5" y="359.292">primeiroNome: String</text><rect fill="none" height="6" style="stroke:#C82930;stroke-width:1;" width="6" x="323.5" y="369.2422"/><text fill="#000000" font-family="sans-serif" font-size="14" lengthAdjust="spacing" textLength="158.0605" x="335.5" y="375.5889">nomeCompleto: String</text><rect fill="none" height="6" style="stroke:#C82930;stroke-width:1;" width="6" x="323.5" y="385.5391"/><text fill="#000000" font-family="sans-serif" font-size="14" lengthAdjust="spacing" textLength="89.5576" x="335.5" y="391.8857">email: String</text><rect fill="none" height="6" style="stroke:#C82930;stroke-width:1;" width="6" x="323.5" y="401.8359"/><text fill="#000000" font-family="sans-serif" font-size="14" lengthAdjust="spacing" textLength="104.207" x="335.5" y="408.1826">contato: String</text><rect fill="none" height="6" style="stroke:#C82930;stroke-width:1;" width="6" x="323.5" y="418.1328"/><text fill="#000000" font-family="sans-serif" font-size="14" lengthAdjust="spacing" textLength="78.0391" x="335.5" y="424.4795">crm: String</text><line style="stroke:#181818;stroke-width:1;" x1="316.5" x2="625.5859" y1="431.7813" y2="431.7813"/><ellipse cx="326.5" cy="445.4297" fill="#84BE84" rx="3" ry="3" style="stroke:#038048;stroke-width:1;"/><text fill="#000000" font-family="sans-serif" font-size="14" lengthAdjust="spacing" textLength="274.7705" x="335.5" y="448.7764">getPacientes(id: Long): List&lt;Paciente&gt;</text><ellipse cx="326.5" cy="461.7266" fill="#84BE84" rx="3" ry="3" style="stroke:#038048;stroke-width:1;"/><text fill="#000000" font-family="sans-serif" font-size="14" lengthAdjust="spacing" textLength="285.0859" x="335.5" y="465.0732">getDetalhes(id: Long): ProfissionalSaude</text><ellipse cx="326.5" cy="478.0234" fill="#84BE84" rx="3" ry="3" style="stroke:#038048;stroke-width:1;"/><text fill="#000000" font-family="sans-serif" font-size="14" lengthAdjust="spacing" textLength="240.7686" x="335.5" y="481.3701">getPrimeiroNome(id: Long): String</text></g><!--link Paciente to Consulta--><g class="link" data-entity-1="Paciente" data-entity-2="Consulta" data-source-line="41" data-uid="lnk5" id="link_Paciente_Consulta"><path codeLine="41" d="M314.62,234.3 C307.73,253.84 301.76,274.23 298,294 C281.82,379.14 279.48,404.34 298,489 C302.38,509.03 309.73,529.58 318.02,548.76" fill="none" id="Paciente-Consulta" style="stroke:#181818;stroke-width:1;"/><text fill="#000000" font-family="sans-serif" font-size="13" lengthAdjust="spacing" textLength="8.271" x="302.8922" y="254.5123">1</text><text fill="#000000" font-family="sans-serif" font-size="13" lengthAdjust="spacing" textLength="23.0356" x="290.0765" y="537.8056">0..*</text></g><!--link ProfissionalSaude to Consulta--><g class="link" data-entity-1="ProfissionalSaude" data-entity-2="Consulta" data-source-line="42" data-uid="lnk6" id="link_ProfissionalSaude_Consulta"><path codeLine="42" d="M429.5,489.13 C421.07,508.75 412.25,529.3 403.96,548.62" fill="none" id="ProfissionalSaude-Consulta" style="stroke:#181818;stroke-width:1;"/><text fill="#000000" font-family="sans-serif" font-size="13" lengthAdjust="spacing" textLength="8.271" x="418.3073" y="508.6051">1</text><text fill="#000000" font-family="sans-serif" font-size="13" lengthAdjust="spacing" textLength="23.0356" x="383.0514" y="537.9571">0..*</text></g><!--link Paciente to ProfissionalSaude--><g class="link" data-entity-1="Paciente" data-entity-2="ProfissionalSaude" data-source-line="43" data-uid="lnk7" id="link_Paciente_ProfissionalSaude"><path codeLine="43" d="M409.92,234.02 C417.68,253.89 425.69,274.42 433.25,293.8" fill="none" id="Paciente-ProfissionalSaude" style="stroke:#181818;stroke-width:1;"/><text fill="#000000" font-family="sans-serif" font-size="13" lengthAdjust="spacing" textLength="23.0356" x="389.0834" y="254.2135">0..*</text><text fill="#000000" font-family="sans-serif" font-size="13" lengthAdjust="spacing" textLength="23.0356" x="406.4774" y="282.8302">0..*</text></g><!--SRC=[XLJ1Ji904Btp5HjEe8NebHWI0p71A9BW3mpjY6ksEtLsIqoC_-vGkcLfGNjfkZFlpPitiqqDEATMa6gq7jLtJyapKZgRg2Uos_hJKeupoWk3dYPgxLateGmyp749BjMvKD0UbuAPWySw8oNheODZT0LP1plKJZ3Q-Rj3V1fWEeCCswWIMYSRqCnjSblco3G39zaBwMkBN4SyWtMUsDBPggFgTQsswEVemRoZ6mGlXfF6fzvFhvTMpisaXz9ukEGSev7UMOl2PoZgOebwsNnWwgUHXu4eykzL7Aqpd3XOYk8DaK6m7R41lLSRH1vq9A9enVIcdTDamQoXpB1fg78WWASr7sHPE6gQJ-9E7XtPv2_LYIgYaekZWI6_hkHPK3oFYAA2bdQm3xMuX-SSgaJVM_oY0V1dgNUYya6RVNAz6Ct4EcPS6bt1mgwPbhByxVswV1ym1srQP-TlGChvwKaqpp33a-shXXKYqtysjTrbn1tr5KEEHZM_W_vjNsIf_iruVDK_3gzhuQN4XkWGEAPqA7u1]--></g></svg>